<svg width="44" height="44" fill="none" xmlns="http://www.w3.org/2000/svg"><path d="M29.21 22.671h2.678c.446 0 .85.266 1.025.676l3.596 8.39a1.115 1.115 0 01-1.025 1.555H8.52c-.8 0-1.34-.819-1.025-1.555l3.596-8.39c.176-.41.58-.676 1.025-.676h2.679" stroke="#000" stroke-width="1.2" stroke-linecap="square"/><path d="M28.558 16.169c0 1.73-.96 3.731-2.243 5.607-1.267 1.854-2.78 3.489-3.75 4.464a.75.75 0 01-1.091-.014c-.966-1.011-2.488-2.708-3.764-4.584-1.296-1.904-2.258-3.88-2.258-5.473a6.553 6.553 0 1113.106 0z" stroke="#05141F" stroke-width="1.2"/><circle cx="22.003" cy="15.843" r="2.434" stroke="#05141F" stroke-width="1.2"/></svg>