<svg width="44" height="44" fill="none" xmlns="http://www.w3.org/2000/svg"><path d="M31.58 14.04a12.374 12.374 0 013.193 8.315c0 3.197-1.208 6.113-3.193 8.314M11.709 14.04a12.374 12.374 0 00-3.194 8.315c0 3.197 1.209 6.113 3.194 8.314" stroke="#000" stroke-width="1.2" stroke-linecap="square"/><rect x="14.082" y="9.825" width="15.123" height="24.212" rx="1.4" stroke="#000" stroke-width="1.2"/><path d="M19.46 11.845h4.232" stroke="#05141F" stroke-width="1.2" stroke-linecap="square"/><path d="M24.05 18.614h-3.158a.223.223 0 00-.205.135l-1.938 4.515a.223.223 0 00.204.31h2.09c.14 0 .246.128.22.266l-.806 4.208c-.032.169.188.263.288.123l4.388-6.16a.223.223 0 00-.182-.352h-1.88a.223.223 0 01-.193-.334l1.365-2.377a.223.223 0 00-.193-.334z" fill="#05141F"/></svg>