<svg width="44" height="44" fill="none" xmlns="http://www.w3.org/2000/svg"><path d="M21.817 28.069c5.6 0 10.618 1.325 14.012 3.419a2.42 2.42 0 001.265.374h2.382M21.83 28.069c-5.6 0-10.619 1.325-14.012 3.419a2.415 2.415 0 01-1.265.374H4.555" stroke="#05141F" stroke-width="1.2" stroke-linecap="square"/><path d="M11 29.616l4.958-9.133m17.464 9.556l-5.718-9.556" stroke="#000" stroke-width="1.2" stroke-linecap="square" stroke-linejoin="round"/><path d="M21.83 20.483v6.828" stroke="#000" stroke-width="1.2" stroke-linecap="square" stroke-linejoin="round" stroke-dasharray="1.49 2.23"/><path d="M33.877 9.862l1.664 1.72-1.664 1.719" stroke="#05141F" stroke-width="1.2" stroke-linecap="square" stroke-linejoin="round"/><path d="M34.707 11.581h-2.673c-.821 0-1.487.666-1.487 1.487v3.242" stroke="#05141F" stroke-width="1.2" stroke-linecap="square"/><path d="M5.5 13.397c0-.68.105-1.283.316-1.809.21-.531.51-.945.9-1.242a2.179 2.179 0 011.36-.446c.513 0 .962.151 1.345.454v1.26a1.705 1.705 0 00-.543-.566 1.281 1.281 0 00-.729-.222c-.367 0-.688.157-.964.471-.27.314-.44.789-.51 1.423a1.68 1.68 0 01.632-.36c.243-.08.461-.12.656-.12.394 0 .74.086 1.037.257.297.171.524.417.68.737.162.315.243.683.243 1.106 0 .434-.091.814-.275 1.14a1.927 1.927 0 01-.753.754 2.147 2.147 0 01-1.062.266c-.421 0-.807-.094-1.158-.283-.346-.194-.63-.511-.85-.951-.217-.446-.325-1.026-.325-1.74v-.129zm1.134.291c.016.623.135 1.095.357 1.415.227.314.507.471.842.471a.814.814 0 00.689-.334c.167-.229.251-.514.251-.857 0-.337-.09-.623-.267-.857-.173-.235-.422-.352-.746-.352-.448 0-.823.172-1.126.514zm3.656-.565c0-.977.2-1.757.6-2.34.405-.589 1.004-.883 1.798-.883s1.39.294 1.79.883c.405.583.608 1.363.608 2.34v.171c0 .977-.203 1.757-.608 2.34-.4.577-.996.866-1.79.866s-1.393-.289-1.799-.866c-.4-.583-.599-1.363-.599-2.34v-.171zm1.167.171c0 .703.1 1.26.3 1.672.205.405.515.608.931.608.416 0 .724-.203.924-.608.205-.412.307-.969.307-1.672v-.171c0-.709-.102-1.269-.307-1.68-.2-.412-.508-.617-.924-.617-.416 0-.726.205-.932.617-.2.411-.3.971-.3 1.68v.171zm5.348 3.12H15.71V9.9h1.094v2.82l2.608-2.82h1.394L17.8 13.07l3.144 3.343h-1.58l-2.56-2.871v2.871zm4.384 0v-4.68h.948l.048.617c.184-.228.379-.408.584-.54.21-.137.453-.205.729-.205.26 0 .497.074.713.223.221.142.386.348.494.617.189-.28.397-.489.624-.626.232-.143.497-.214.794-.214a1.309 1.309 0 011.183.728c.13.24.194.534.194.883v3.197h-1.045v-3.197c0-.52-.192-.78-.575-.78-.21 0-.413.094-.608.283a1.517 1.517 0 00-.413.66v3.034h-1.037l.008-3.24c0-.245-.051-.428-.154-.548-.102-.126-.251-.189-.445-.189-.2 0-.392.089-.576.266a1.78 1.78 0 00-.42.66v3.051h-1.046z" fill="#000"/></svg>