<svg width="44" height="44" fill="none" xmlns="http://www.w3.org/2000/svg"><path d="M15.944 28.004h19.642a1.2 1.2 0 001.201-1.2v-3.861a4.003 4.003 0 00-4.003-4.004H10.629c-.996 0-1.84.732-1.972 1.72-.195 1.462-.464 3.583-.615 5.243-.107 1.171.818 2.102 1.994 2.102h2.666" stroke="#05141F" stroke-width="1.2" stroke-linecap="round"/><path d="M30.13 18.801l-4.538-4.922a1.601 1.601 0 00-1.178-.516H14.29c-.642 0-1.222.384-1.473.974l-1.901 4.464m8.338-5.438v5.8" stroke="#05141F" stroke-width="1.2" stroke-linejoin="round"/><path d="M27.412 28.241a2.748 2.748 0 105.496 0 2.748 2.748 0 00-5.496 0zm-16.711 0a2.748 2.748 0 105.496 0 2.748 2.748 0 00-5.496 0z" fill="#fff" stroke="#05141F" stroke-width="1.2"/><path d="M40.697 17.244c1.052 1.473 1.679 3.332 1.679 5.352 0 2.021-.627 3.88-1.679 5.353m-1.435-2.294c.472-.783.764-1.864.764-3.059 0-1.194-.292-2.275-.764-3.058M3.95 27.949c-1.05-1.473-1.678-3.332-1.678-5.352 0-2.02.628-3.88 1.679-5.353m1.525 2.294c-.472.783-.764 1.865-.764 3.059 0 1.194.292 2.275.764 3.058" stroke="#000" stroke-width="1.2" stroke-linecap="square"/></svg>