<svg width="44" height="44" fill="none" xmlns="http://www.w3.org/2000/svg"><path d="M28.722 31.12l.667-1.675a1.2 1.2 0 011.446-.71l1.292.369a1.2 1.2 0 01.803 1.553l-1.54 4.379a.743.743 0 01-.701.497h-8.691" stroke="#05141F" stroke-width="1.2" stroke-linecap="round"/><path d="M15.322 31.275v0a21.992 21.992 0 0113.359 0v0" stroke="#05141F" stroke-width="1.2" stroke-linecap="round"/><path d="M15.12 31.12l-.634-1.649a1.201 1.201 0 00-1.462-.72l-1.179.349a1.201 1.201 0 00-.796 1.537l1.491 4.391a.743.743 0 00.704.505h9.426" stroke="#05141F" stroke-width="1.2" stroke-linecap="round"/><path d="M29.81 27.017V15.085c0-.884-.717-1.601-1.601-1.601h-12.41c-.885 0-1.602.717-1.602 1.601v11.932" stroke="#05141F" stroke-width="1.2" stroke-linecap="square"/><path d="M18.27 9.793a1.487 1.487 0 011.471-1.277h4.518c.74 0 1.367.544 1.472 1.277l.285 1.994a1.487 1.487 0 01-1.472 1.697h-5.087c-.905 0-1.6-.802-1.472-1.697l.285-1.994z" stroke="#05141F" stroke-width="1.2"/><path d="M26.408 19.557l-.42 1.657a.372.372 0 01-.503.252l-1.58-.654m-5.942 5.231l.142-1.704a.372.372 0 01.454-.331l1.666.384" stroke="#05141F" stroke-linecap="square"/><path d="M25.793 23.623a3.937 3.937 0 01-7.293.715m-.282-2.868a3.937 3.937 0 017.435-.407" stroke="#05141F" stroke-width="1.2" stroke-linecap="square"/></svg>