<svg width="44" height="44" fill="none" xmlns="http://www.w3.org/2000/svg"><path d="M25.63 19.288l-.005.005a13.352 13.352 0 00-.91 1.626c-.27.57-.502 1.169-.692 1.799-.19.632-.339 1.296-.44 2a16.148 16.148 0 00-.161 2.221m-4.965-7.651l.004.005a13.16 13.16 0 011.602 3.425c.19.632.339 1.296.44 2 .102.702.157 1.441.161 2.221" stroke="#05141F" stroke-width="1.2" stroke-linecap="square"/><path d="M28.722 31.247l.667-1.675a1.2 1.2 0 011.446-.71l1.292.369a1.2 1.2 0 01.803 1.553l-1.54 4.379a.743.743 0 01-.701.497h-8.691" stroke="#05141F" stroke-width="1.2" stroke-linecap="round"/><path d="M15.322 31.402v0a21.994 21.994 0 0113.359 0v0" stroke="#05141F" stroke-width="1.2" stroke-linecap="round"/><path d="M15.12 31.247l-.634-1.649a1.2 1.2 0 00-1.462-.72l-1.179.348a1.201 1.201 0 00-.796 1.538l1.386 4.08a1.2 1.2 0 001.137.816h9.098" stroke="#05141F" stroke-width="1.2" stroke-linecap="round"/><path d="M29.81 27.144V15.213c0-.885-.717-1.602-1.601-1.602h-12.41c-.885 0-1.602.717-1.602 1.602v11.931" stroke="#05141F" stroke-width="1.2" stroke-linecap="square"/><path d="M18.27 9.92a1.487 1.487 0 011.471-1.277h4.518c.74 0 1.367.544 1.472 1.277l.285 1.994a1.487 1.487 0 01-1.472 1.697h-5.087c-.905 0-1.6-.802-1.472-1.697l.285-1.994z" stroke="#05141F" stroke-width="1.2"/></svg>