<svg width="44" height="44" fill="none" xmlns="http://www.w3.org/2000/svg"><path d="M32.241 18.319a3.86 3.86 0 011.458 3.022v4.754c-1.232.154-4.842.509-11.913.509-7.07 0-10.68-.355-11.913-.509V21.24a3.86 3.86 0 011.349-2.93l1.413-1.213 1.395.116a92.04 92.04 0 0015.266 0l1.408-.117 1.537 1.223z" stroke="#05141F" stroke-width="1.2" stroke-linejoin="round"/><path d="M12.852 17.148l2.542-5.28a1.601 1.601 0 011.443-.907h9.904c.615 0 1.176.352 1.443.907l2.543 5.28" stroke="#05141F" stroke-width="1.2" stroke-linejoin="round"/><path d="M32.678 16.45l-1.954.578m-19.849-.578l1.954.578" stroke="#05141F" stroke-width="1.2" stroke-linecap="round" stroke-linejoin="round"/><path d="M28.807 26.515v2.116c0 .589.477 1.066 1.066 1.066h2.6c.59 0 1.066-.477 1.066-1.066v-2.116m-23.508-.204v2.312c0 .589.477 1.066 1.066 1.066h2.641c.589 0 1.066-.477 1.066-1.066v-2.312" stroke="#05141F" stroke-width="1.2"/><path d="M15.385 21.841l-2.807-.332m15.57.332l2.807-.332M17.32 26.312l.612-2.104a.8.8 0 01.769-.578h6.185a.8.8 0 01.766.568l.606 1.992" stroke="#05141F" stroke-width="1.2" stroke-linecap="round" stroke-linejoin="round"/><path d="M38.553 17.328c1.476 1.376 2.389 3.276 2.389 5.375 0 2.098-.913 3.998-2.39 5.375m-1.195-2.688c.738-.688 1.195-1.638 1.195-2.687 0-1.05-.457-2-1.195-2.688M5.209 17.327c-1.476 1.376-2.389 3.276-2.389 5.375s.913 3.999 2.389 5.375m1.195-2.687c-.738-.688-1.194-1.638-1.194-2.688 0-1.05.456-2 1.194-2.687" stroke="#000" stroke-width="1.2" stroke-linecap="square"/></svg>