<svg width="44" height="44" fill="none" xmlns="http://www.w3.org/2000/svg"><path d="M9.409 17.335a.45.45 0 01.626.002l4.532 4.422c.03.029.034.075.01.11v0a2.4 2.4 0 00-.124 2.504l.128.234a.1.1 0 01-.018.121l-4.477 4.368a.485.485 0 01-.701-.025l-.41-.463a8.153 8.153 0 01.434-11.273v0z" stroke="#000" stroke-width="1.2"/><path d="M25.857 28.485h13.13m-16.785 0h-3.31a1.56 1.56 0 01-1.572-1.547c-.012-1.807 0-4.43.012-6.095a1.596 1.596 0 011.6-1.584h20.054" stroke="#05141F" stroke-width="1.2" stroke-linecap="round"/><path d="M28.98 13.484v5.985" stroke="#05141F" stroke-width="1.2" stroke-linejoin="round"/><path d="M20.177 19.26l2.185-4.746c.262-.568.83-.932 1.455-.932H33.82c.369 0 .726.127 1.011.36l3.797 3.09" stroke="#05141F" stroke-width="1.2" stroke-linecap="round" stroke-linejoin="round"/><path d="M20.07 28.485a2.948 2.948 0 105.896 0 2.948 2.948 0 00-5.897 0z" fill="#fff" stroke="#05141F" stroke-width="1.2"/></svg>