<svg width="44" height="44" fill="none" xmlns="http://www.w3.org/2000/svg"><rect x="7.586" y="10.622" width="28.828" height="22" rx="2.402" stroke="#000" stroke-width="1.2"/><path fill-rule="evenodd" clip-rule="evenodd" d="M18.7 21.635h-1.202l-.336.934h1.203l.336-.934z" fill="url(#paint0_linear_1796_21345)"/><path fill-rule="evenodd" clip-rule="evenodd" d="M16.275 20.432l-1.356 3.767h1.158l1.356-3.767h-1.158z" fill="url(#paint1_linear_1796_21345)"/><path fill-rule="evenodd" clip-rule="evenodd" d="M14.309 20.337c-.511 0-.951.22-1.347.6l.917-2.584h-1.157L10.646 24.2h1.157l.64-1.801c.507-1.16.992-1.3 1.199-1.3.31 0 .645.143.27 1.293l-.655 1.808h1.157l.66-1.819c.537-1.374-.065-2.043-.766-2.043z" fill="url(#paint2_linear_1796_21345)"/><path fill-rule="evenodd" clip-rule="evenodd" d="M21.886 20.337c-.49 0-.88.206-1.241.558l.17-.463h-1.157l-2.041 5.555h1.157l.653-1.78c.119.01.242.018.375.018.85 0 2.135-.407 2.778-1.845.602-1.345.007-2.043-.694-2.043zm-.58 2.18c-.626 1.144-1.194 1.183-1.683 1.183 0 0 .08-.369.428-1.204.523-1.251.956-1.398 1.17-1.398.213 0 .774.158.085 1.418z" fill="url(#paint3_linear_1796_21345)"/><path fill-rule="evenodd" clip-rule="evenodd" d="M32.22 22.12c-.375-.388-.647-.621-.63-.815.017-.195.23-.427.655-.427.424 0 .846.198.846.198l.205-.529s-.343-.269-1.04-.27c-1.078-.006-1.778.507-1.87 1.163-.055.41.198.66.504.981.116.122.237.233.35.36.204.229.306.465.119.69-.147.175-.462.223-.676.202-.522-.05-.828-.31-.828-.31l-.394.602s.458.373 1.282.35c1.29-.038 1.836-.783 1.868-1.32.02-.33-.084-.557-.391-.875z" fill="url(#paint4_linear_1796_21345)"/><path fill-rule="evenodd" clip-rule="evenodd" d="M25.86 20.373c-.924.011-2.276.485-2.971 1.844-.694 1.36-.185 2.078.518 2.078.703 0 1.195-.377 1.768-1.113l-.365 1.016h1.158l1.255-3.527s-.512-.308-1.363-.299zm-.408 1.683c-.653 1.251-1.102 1.398-1.315 1.398-.212 0-.716-.385.03-1.447.687-.977 1.46-1.154 1.839-1.154 0 0-.117.368-.554 1.203z" fill="url(#paint5_linear_1796_21345)"/><path fill-rule="evenodd" clip-rule="evenodd" d="M29.167 22.12c-.375-.388-.647-.621-.63-.815.018-.195.23-.427.655-.427.425 0 .73.155.73.155l.32-.486s-.342-.269-1.039-.27c-1.078-.006-1.779.507-1.869 1.163-.056.41.197.66.504.981.115.122.235.233.349.36.203.229.306.465.118.69-.146.175-.46.223-.675.202-.522-.05-.828-.31-.828-.31l-.394.602s.457.373 1.282.35c1.29-.038 1.835-.783 1.868-1.32.019-.33-.086-.557-.392-.875h.001z" fill="url(#paint6_linear_1796_21345)"/><path fill-rule="evenodd" clip-rule="evenodd" d="M23.284 17.68c1.47-.039 2.936.117 4.405.137 1.188.016 2.385-.017 3.567-.155.544-.064 1.116-.158 1.63-.357 0 0-2.218 1.195-6.43 1.207-2.765.008-5.412-.134-8.111.691-.633.194-1.11.383-1.874.86.046-.031.425-.54 1.186-1.053 1.091-.737 2.57-1.06 3.855-1.208a19.934 19.934 0 011.773-.122z" fill="url(#paint7_linear_1796_21345)"/><path fill-rule="evenodd" clip-rule="evenodd" d="M16.524 20.127c-.014.008 1.683-1.174 5.348-1.425 1.52-.079 1.537-.079 3.116-.06-.022-.001 4.965.23 7.786-1.17-.137.068-.267.158-.402.23-.339.183-.688.348-1.044.497-.66.276-1.343.492-2.035.655-1.046.245-2.102.372-3.144.444-1.337.093-2.65.097-3.94.097-1.424-.001-2.831.067-4.255.362-.241.05-.483.092-.723.154-.211.054-.504.102-.708.216z" fill="url(#paint8_linear_1796_21345)"/><defs><linearGradient id="paint0_linear_1796_21345" x1="17.854" y1="21.635" x2="17.854" y2="22.569" gradientUnits="userSpaceOnUse"><stop stop-color="#313236"/><stop offset="1" stop-color="#05141F"/></linearGradient><linearGradient id="paint1_linear_1796_21345" x1="16.049" y1="20.432" x2="16.049" y2="24.199" gradientUnits="userSpaceOnUse"><stop stop-color="#313236"/><stop offset="1" stop-color="#05141F"/></linearGradient><linearGradient id="paint2_linear_1796_21345" x1="12.729" y1="18.353" x2="12.729" y2="24.199" gradientUnits="userSpaceOnUse"><stop stop-color="#313236"/><stop offset="1" stop-color="#05141F"/></linearGradient><linearGradient id="paint3_linear_1796_21345" x1="19.96" y1="20.337" x2="19.96" y2="25.987" gradientUnits="userSpaceOnUse"><stop stop-color="#313236"/><stop offset="1" stop-color="#05141F"/></linearGradient><linearGradient id="paint4_linear_1796_21345" x1="31.185" y1="20.276" x2="31.185" y2="24.316" gradientUnits="userSpaceOnUse"><stop stop-color="#313236"/><stop offset="1" stop-color="#05141F"/></linearGradient><linearGradient id="paint5_linear_1796_21345" x1="24.655" y1="20.372" x2="24.655" y2="24.295" gradientUnits="userSpaceOnUse"><stop stop-color="#313236"/><stop offset="1" stop-color="#05141F"/></linearGradient><linearGradient id="paint6_linear_1796_21345" x1="28.132" y1="20.276" x2="28.132" y2="24.316" gradientUnits="userSpaceOnUse"><stop stop-color="#313236"/><stop offset="1" stop-color="#05141F"/></linearGradient><linearGradient id="paint7_linear_1796_21345" x1="23.85" y1="17.305" x2="23.85" y2="20.062" gradientUnits="userSpaceOnUse"><stop stop-color="#313236"/><stop offset="1" stop-color="#05141F"/></linearGradient><linearGradient id="paint8_linear_1796_21345" x1="23.828" y1="17.473" x2="23.828" y2="20.127" gradientUnits="userSpaceOnUse"><stop stop-color="#313236"/><stop offset="1" stop-color="#05141F"/></linearGradient></defs></svg>