<svg width="44" height="44" fill="none" xmlns="http://www.w3.org/2000/svg"><path d="M17.03 9.411a8.622 8.622 0 015.322-1.825c2.01 0 3.858.682 5.322 1.825m-2.281 1.622c-.779-.513-1.854-.831-3.042-.831-1.188 0-2.263.318-3.041.831" stroke="#05141F" stroke-width="1.2" stroke-linecap="square"/><path d="M14.485 16.326a2.602 2.602 0 012.598-2.463h10.538a2.603 2.603 0 012.599 2.463l.931 17.26a2.603 2.603 0 01-2.598 2.742H16.152a2.603 2.603 0 01-2.6-2.742l.933-17.26z" stroke="#05141F" stroke-width="1.2"/><path d="M24.43 22.49a3.829 3.829 0 011.822 3.252c0 2.123-1.748 3.844-3.903 3.844-2.156 0-3.904-1.72-3.904-3.844 0-1.37.727-2.572 1.822-3.253" stroke="#05141F" stroke-width="1.2" stroke-linecap="square"/><path d="M22.348 21.07v3.548" stroke="#05141F" stroke-width=".961" stroke-linecap="square"/></svg>